<svg width="36" height="36" viewBox="0 0 45 42" fill="none" xmlns="http://www.w3.org/2000/svg">
<path d="M8.31274 24.5125C8.84234 25.3207 8.56125 26.3719 7.68491 26.8603C6.80856 27.3488 5.66882 27.0895 5.13922 26.2813C4.38631 25.1323 3.87548 24.1421 3.57511 23.5029C3.145 22.5877 3.20741 21.5572 3.73139 20.6942C4.53096 19.3774 6.55083 16.3331 9.66376 13.5978C12.7695 10.8688 17.1397 8.29761 22.5981 8.29761C28.0564 8.29761 32.4266 10.8688 35.5324 13.5978C38.6453 16.3331 40.6652 19.3774 41.4647 20.6942C41.9887 21.5572 42.0511 22.5877 41.621 23.5029C41.3206 24.1421 40.8098 25.1323 40.0569 26.2813C39.5273 27.0895 38.3876 27.3488 37.5112 26.8603C36.6349 26.3719 36.3538 25.3207 36.8834 24.5125C37.4889 23.5883 37.9092 22.7891 38.164 22.2582C37.4118 21.0354 35.6301 18.4072 32.9746 16.0738C30.2316 13.6636 26.7324 11.7175 22.5981 11.7175C18.4637 11.7175 14.9645 13.6636 12.2215 16.0738C9.56597 18.4072 7.78434 21.0354 7.03207 22.2582C7.28696 22.7891 7.70717 23.5883 8.31274 24.5125Z" fill="black"/>
<path fill-rule="evenodd" clip-rule="evenodd" d="M22.5981 14.2824C17.4784 14.2824 13.328 18.1102 13.328 22.832C13.328 27.5538 17.4784 31.3816 22.5981 31.3816C27.7178 31.3816 31.8681 27.5538 31.8681 22.832C31.8681 18.1102 27.7178 14.2824 22.5981 14.2824ZM17.036 22.832C17.036 19.9989 19.5262 17.7022 22.5981 17.7022C25.6699 17.7022 28.1601 19.9989 28.1601 22.832C28.1601 25.6651 25.6699 27.9618 22.5981 27.9618C19.5262 27.9618 17.036 25.6651 17.036 22.832Z" fill="black"/>
</svg>
