<svg width="32" height="36" viewBox="0 0 46 44" fill="none" xmlns="http://www.w3.org/2000/svg">
<path fill-rule="evenodd" clip-rule="evenodd" d="M17.3253 4.32178C17.2032 4.32178 17.0814 4.33349 16.9617 4.35675L9.66123 5.77504C7.81813 6.1331 6.28588 7.37116 5.58782 9.06637L2.62578 16.2595C2.38548 16.843 2.47576 17.5061 2.86398 18.0089L18.4377 38.1793C19.4881 39.5398 21.1366 40.3404 22.8873 40.3404C24.638 40.3404 26.2865 39.5398 27.3369 38.1793L42.9106 18.0089C43.2988 17.5061 43.3891 16.843 43.1488 16.2595L40.1868 9.06637C39.4887 7.37116 37.9564 6.1331 36.1133 5.77504L28.8129 4.35675C28.6932 4.33349 28.5714 4.32178 28.4493 4.32178H17.3253ZM37.0326 19.6187L28.7701 30.32L33.4522 20.3143L37.0326 19.6187ZM38.8782 15.5869L33.4703 16.6376L31.0673 8.46792L35.3861 9.30695C36.0005 9.42631 36.5113 9.839 36.7439 10.4041L38.8782 15.5869ZM16.0752 16.9283L18.7237 7.92364H27.0508L29.6994 16.9283H16.0752ZM22.8873 34.1873L16.4965 20.5302H29.2781L22.8873 34.1873ZM17.0045 30.32L12.3224 20.3143L8.74196 19.6187L17.0045 30.32ZM9.03063 10.4041L6.89637 15.5869L12.3043 16.6376L14.7072 8.46792L10.3884 9.30696C9.77407 9.42631 9.26332 9.839 9.03063 10.4041Z" fill="black"/>
</svg>
