<svg width="18" height="19" viewBox="0 0 18 19" fill="none" xmlns="http://www.w3.org/2000/svg">
<path d="M12.7249 2.27517C13.7167 2.27802 14.667 2.65841 15.3683 3.33324C16.0696 4.00808 16.4649 4.92254 16.4678 5.8769V13.0796C16.4649 14.0339 16.0696 14.9484 15.3683 15.6232C14.667 16.2981 13.7167 16.6784 12.7249 16.6813H5.23985C4.24808 16.6784 3.29777 16.2981 2.59648 15.6232C1.89518 14.9484 1.49989 14.0339 1.49693 13.0796V5.8769C1.49989 4.92254 1.89518 4.00808 2.59648 3.33324C3.29777 2.65841 4.24808 2.27802 5.23985 2.27517H12.7249V2.27517ZM12.7249 0.834717H5.23985C2.35787 0.834717 0 3.10364 0 5.8769V13.0796C0 15.8528 2.35787 18.1217 5.23985 18.1217H12.7249C15.6069 18.1217 17.9647 15.8528 17.9647 13.0796V5.8769C17.9647 3.10364 15.6069 0.834717 12.7249 0.834717V0.834717Z" fill="white"/>
<path d="M13.8477 5.87719C13.6256 5.87719 13.4086 5.81382 13.2239 5.6951C13.0393 5.57638 12.8954 5.40764 12.8104 5.21021C12.7254 5.01279 12.7032 4.79555 12.7465 4.58597C12.7898 4.37638 12.8968 4.18386 13.0538 4.03276C13.2108 3.88166 13.4109 3.77876 13.6287 3.73707C13.8465 3.69538 14.0722 3.71678 14.2774 3.79855C14.4826 3.88033 14.6579 4.01881 14.7813 4.19649C14.9047 4.37417 14.9705 4.58306 14.9705 4.79675C14.9708 4.93872 14.942 5.07935 14.8857 5.21058C14.8294 5.3418 14.7467 5.46103 14.6424 5.56142C14.538 5.6618 14.4141 5.74138 14.2778 5.79557C14.1414 5.84976 13.9953 5.87749 13.8477 5.87719ZM8.9824 6.59722C9.57461 6.59722 10.1535 6.76621 10.6459 7.08281C11.1383 7.39941 11.5221 7.84941 11.7487 8.3759C11.9754 8.90239 12.0347 9.48172 11.9191 10.0406C11.8036 10.5996 11.5184 11.113 11.0997 11.5159C10.6809 11.9189 10.1474 12.1933 9.56655 12.3045C8.98572 12.4156 8.38368 12.3586 7.83655 12.1405C7.28942 11.9224 6.82178 11.5531 6.49276 11.0793C6.16375 10.6055 5.98814 10.0484 5.98814 9.47852C5.98899 8.71461 6.30473 7.98221 6.86608 7.44204C7.42743 6.90187 8.18853 6.59804 8.9824 6.59722ZM8.9824 5.15677C8.09413 5.15677 7.2258 5.41023 6.48723 5.88511C5.74866 6.35999 5.17301 7.03496 4.83308 7.82466C4.49316 8.61436 4.40422 9.48332 4.57751 10.3217C4.7508 11.16 5.17855 11.9301 5.80665 12.5345C6.43475 13.1389 7.23501 13.5505 8.10621 13.7172C8.97742 13.884 9.88045 13.7984 10.7011 13.4713C11.5218 13.1442 12.2232 12.5903 12.7167 11.8796C13.2102 11.1689 13.4736 10.3333 13.4736 9.47852C13.4736 8.33232 13.0004 7.23307 12.1581 6.42258C11.3159 5.61209 10.1735 5.15677 8.9824 5.15677Z" fill="white"/>
</svg>
