<svg width="19" height="19" viewBox="0 0 19 19" fill="none" xmlns="http://www.w3.org/2000/svg">
<path d="M17.008 0.700928H2.3574C1.55686 0.700928 0.857422 1.27694 0.857422 2.06807V16.7512C0.857422 17.5466 1.55686 18.2555 2.3574 18.2555H17.0037C17.8085 18.2555 18.412 17.5419 18.412 16.7512V2.06807C18.4167 1.27694 17.8085 0.700928 17.008 0.700928ZM6.29894 15.3335H3.7841V7.51429H6.29894V15.3335ZM5.12851 6.32544H5.11048C4.30564 6.32544 3.78449 5.72631 3.78449 4.97632C3.78449 4.21262 4.31935 3.6276 5.14222 3.6276C5.96509 3.6276 6.46861 4.20831 6.48663 4.97632C6.48624 5.72631 5.96509 6.32544 5.12851 6.32544ZM15.49 15.3335H12.9752V11.0581C12.9752 10.0338 12.6092 9.33401 11.6993 9.33401C11.0042 9.33401 10.5928 9.80422 10.4098 10.2623C10.3412 10.4269 10.3228 10.651 10.3228 10.8798V15.3335H7.80793V7.51429H10.3228V8.60244C10.6888 8.08128 11.2605 7.3313 12.5908 7.3313C14.2416 7.3313 15.4904 8.41945 15.4904 10.7654L15.49 15.3335Z" fill="white"/>
</svg>
