<svg width="127" height="77" viewBox="0 0 127 77" fill="none" xmlns="http://www.w3.org/2000/svg">
<g clip-path="url(#clip0_147_1632)">
<path d="M124.748 77C125.992 77 127 75.9988 127 74.7639C127 73.5289 125.992 72.5278 124.748 72.5278C123.505 72.5278 122.496 73.5289 122.496 74.7639C122.496 75.9988 123.505 77 124.748 77Z" fill="#1A202C"/>
<path d="M104.328 77C105.571 77 106.58 75.9988 106.58 74.7639C106.58 73.5289 105.571 72.5278 104.328 72.5278C103.084 72.5278 102.076 73.5289 102.076 74.7639C102.076 75.9988 103.084 77 104.328 77Z" fill="#1A202C"/>
<path d="M83.9159 76.9998C84.3634 77.0015 84.8012 76.8713 85.1741 76.6257C85.5469 76.3801 85.838 76.0301 86.0104 75.6201C86.1828 75.2101 86.2288 74.7586 86.1425 74.3226C86.0563 73.8867 85.8417 73.4859 85.5259 73.1712C85.2101 72.8564 84.8074 72.6418 84.3687 72.5545C83.93 72.4672 83.475 72.5112 83.0615 72.6808C82.648 72.8504 82.2944 73.1381 82.0457 73.5074C81.7969 73.8767 81.6641 74.311 81.6641 74.7553C81.6641 75.3491 81.9011 75.9187 82.3232 76.3394C82.7452 76.7601 83.3179 76.9976 83.9159 76.9998Z" fill="#1A202C"/>
<path d="M63.5043 76.9998C63.9514 76.9998 64.3884 76.8682 64.7601 76.6215C65.1319 76.3749 65.4215 76.0244 65.5926 75.6142C65.7637 75.2041 65.8084 74.7528 65.7212 74.3174C65.634 73.882 65.4187 73.4821 65.1026 73.1682C64.7865 72.8543 64.3837 72.6405 63.9453 72.5539C63.5068 72.4673 63.0523 72.5117 62.6393 72.6816C62.2262 72.8515 61.8733 73.1392 61.6249 73.5083C61.3765 73.8774 61.2439 74.3113 61.2439 74.7552C61.2439 75.05 61.3023 75.3419 61.4159 75.6142C61.5295 75.8866 61.696 76.134 61.9059 76.3424C62.1158 76.5508 62.365 76.7162 62.6393 76.829C62.9135 76.9418 63.2075 76.9998 63.5043 76.9998Z" fill="#1A202C"/>
<path d="M43.0839 77C44.3276 77 45.3358 75.9988 45.3358 74.7639C45.3358 73.5289 44.3276 72.5278 43.0839 72.5278C41.8402 72.5278 40.832 73.5289 40.832 74.7639C40.832 75.9988 41.8402 77 43.0839 77Z" fill="#1A202C"/>
<path d="M23.5341 76.7336C24.6843 76.264 25.2334 74.9574 24.7605 73.8152C24.2876 72.673 22.9717 72.1279 21.8215 72.5975C20.6712 73.0671 20.1221 74.3736 20.5951 75.5158C21.068 76.658 22.3838 77.2032 23.5341 76.7336Z" fill="#1A202C"/>
<path d="M2.26032 72.5532C1.81253 72.5516 1.37439 72.682 1.00136 72.928C0.628341 73.174 0.33729 73.5244 0.16515 73.9349C-0.0069902 74.3454 -0.0524706 74.7974 0.0344751 75.2336C0.121421 75.6698 0.336854 76.0704 0.653489 76.3849C0.970123 76.6993 1.37364 76.9132 1.8129 76.9995C2.25217 77.0859 2.70742 77.0407 3.1208 76.8698C3.53418 76.6988 3.88713 76.4099 4.13485 76.0395C4.38258 75.6691 4.51388 75.234 4.5122 74.7893C4.50995 74.197 4.272 73.6295 3.85018 73.2106C3.42836 72.7917 2.85686 72.5555 2.26032 72.5532Z" fill="#1A202C"/>
<path d="M124.748 58.8657C125.992 58.8657 127 57.8646 127 56.6296C127 55.3947 125.992 54.3936 124.748 54.3936C123.505 54.3936 122.496 55.3947 122.496 56.6296C122.496 57.8646 123.505 58.8657 124.748 58.8657Z" fill="#1A202C"/>
<path d="M104.328 58.8657C105.571 58.8657 106.58 57.8646 106.58 56.6296C106.58 55.3947 105.571 54.3936 104.328 54.3936C103.084 54.3936 102.076 55.3947 102.076 56.6296C102.076 57.8646 103.084 58.8657 104.328 58.8657Z" fill="#1A202C"/>
<path d="M83.916 58.866C84.3637 58.8677 84.802 58.7373 85.175 58.4913C85.548 58.2453 85.8391 57.8948 86.0112 57.4843C86.1834 57.0739 86.2288 56.6219 86.1419 56.1857C86.055 55.7495 85.8395 55.3488 85.5229 55.0343C85.2063 54.7199 84.8026 54.506 84.3634 54.4197C83.9241 54.3333 83.469 54.3785 83.0556 54.5494C82.6422 54.7204 82.2893 55.0094 82.0415 55.3798C81.7938 55.7502 81.6624 56.1853 81.6641 56.6299C81.6663 57.2223 81.9044 57.7897 82.3262 58.2086C82.748 58.6275 83.3194 58.8638 83.916 58.866Z" fill="#1A202C"/>
<path d="M63.5043 58.866C63.9518 58.866 64.3891 58.7341 64.761 58.4871C65.1329 58.2401 65.4226 57.8891 65.5935 57.4784C65.7643 57.0678 65.8085 56.6161 65.7206 56.1804C65.6327 55.7448 65.4166 55.3449 65.0996 55.0313C64.7826 54.7178 64.379 54.5047 63.94 54.4191C63.5009 54.3334 63.0462 54.3791 62.6333 54.5503C62.2205 54.7214 61.8681 55.0104 61.6207 55.3807C61.3734 55.7509 61.2422 56.1857 61.2439 56.6299C61.2439 56.9243 61.3024 57.2157 61.4161 57.4876C61.5298 57.7594 61.6964 58.0063 61.9064 58.2141C62.1165 58.4218 62.3657 58.5863 62.6399 58.6982C62.9141 58.8101 63.2079 58.8671 63.5043 58.866Z" fill="#1A202C"/>
<path d="M43.0839 58.8657C44.3276 58.8657 45.3358 57.8646 45.3358 56.6296C45.3358 55.3947 44.3276 54.3936 43.0839 54.3936C41.8402 54.3936 40.832 55.3947 40.832 56.6296C40.832 57.8646 41.8402 58.8657 43.0839 58.8657Z" fill="#1A202C"/>
<path d="M23.536 58.6062C24.6863 58.1366 25.2354 56.83 24.7625 55.6878C24.2895 54.5456 22.9737 54.0004 21.8234 54.47C20.6732 54.9396 20.1241 56.2462 20.597 57.3884C21.07 58.5306 22.3858 59.0758 23.536 58.6062Z" fill="#1A202C"/>
<path d="M2.26043 58.866C2.70786 58.866 3.14519 58.7341 3.5171 58.4871C3.889 58.2401 4.17873 57.8891 4.34956 57.4784C4.52039 57.0678 4.56471 56.6161 4.4768 56.1804C4.38889 55.7448 4.17268 55.3449 3.85571 55.0313C3.53873 54.7178 3.13522 54.5047 2.69619 54.4191C2.25715 54.3334 1.80242 54.3791 1.38954 54.5503C0.976661 54.7214 0.624185 55.0104 0.376839 55.3807C0.129492 55.7509 -0.0016723 56.1857 1.60975e-05 56.6299C1.39708e-05 56.9243 0.0585364 57.2157 0.172236 57.4876C0.285936 57.7594 0.452648 58.0063 0.662657 58.2141C0.872667 58.4218 1.12191 58.5863 1.3961 58.6982C1.6703 58.8101 1.96399 58.8671 2.26043 58.866Z" fill="#1A202C"/>
<path d="M124.748 40.7319C125.992 40.7319 127 39.7308 127 38.4958C127 37.2609 125.992 36.2598 124.748 36.2598C123.505 36.2598 122.496 37.2609 122.496 38.4958C122.496 39.7308 123.505 40.7319 124.748 40.7319Z" fill="#1A202C"/>
<path d="M104.328 40.7319C105.571 40.7319 106.58 39.7308 106.58 38.4958C106.58 37.2609 105.571 36.2598 104.328 36.2598C103.084 36.2598 102.076 37.2609 102.076 38.4958C102.076 39.7308 103.084 40.7319 104.328 40.7319Z" fill="#1A202C"/>
<path d="M83.9159 40.7405C84.3634 40.7422 84.8012 40.612 85.1741 40.3664C85.5469 40.1208 85.838 39.7708 86.0104 39.3608C86.1828 38.9508 86.2288 38.4993 86.1425 38.0633C86.0563 37.6274 85.8417 37.2267 85.5259 36.9119C85.2101 36.5972 84.8074 36.3825 84.3687 36.2952C83.93 36.2079 83.475 36.2519 83.0615 36.4215C82.648 36.5911 82.2944 36.8788 82.0457 37.2481C81.7969 37.6174 81.6641 38.0517 81.6641 38.496C81.6641 39.0898 81.9011 39.6594 82.3232 40.0801C82.7452 40.5008 83.3179 40.7383 83.9159 40.7405Z" fill="#1A202C"/>
<path d="M63.5043 40.7405C63.9514 40.7405 64.3884 40.6089 64.7601 40.3623C65.1319 40.1156 65.4215 39.7651 65.5926 39.355C65.7637 38.9448 65.8084 38.4935 65.7212 38.0581C65.634 37.6227 65.4187 37.2227 65.1026 36.9088C64.7865 36.5949 64.3837 36.3812 63.9453 36.2946C63.5068 36.208 63.0523 36.2524 62.6393 36.4223C62.2262 36.5922 61.8733 36.8799 61.6249 37.249C61.3765 37.6181 61.2439 38.052 61.2439 38.496C61.2439 38.7907 61.3023 39.0826 61.4159 39.355C61.5295 39.6273 61.696 39.8747 61.9059 40.0831C62.1158 40.2915 62.365 40.4569 62.6393 40.5697C62.9135 40.6825 63.2075 40.7405 63.5043 40.7405Z" fill="#1A202C"/>
<path d="M43.0839 40.7319C44.3276 40.7319 45.3358 39.7308 45.3358 38.4958C45.3358 37.2609 44.3276 36.2598 43.0839 36.2598C41.8402 36.2598 40.832 37.2609 40.832 38.4958C40.832 39.7308 41.8402 40.7319 43.0839 40.7319Z" fill="#1A202C"/>
<path d="M23.5348 40.4792C24.685 40.0096 25.2341 38.703 24.7612 37.5608C24.2883 36.4186 22.9725 35.8735 21.8222 36.3431C20.672 36.8127 20.1229 38.1192 20.5958 39.2614C21.0687 40.4036 22.3846 40.9488 23.5348 40.4792Z" fill="#1A202C"/>
<path d="M2.26041 40.7405C2.70748 40.7405 3.14453 40.6089 3.51625 40.3623C3.88797 40.1156 4.17763 39.7651 4.34871 39.355C4.5198 38.9448 4.56463 38.4935 4.47741 38.0581C4.39019 37.6227 4.17493 37.2227 3.85881 36.9088C3.54269 36.5949 3.13985 36.3812 2.70138 36.2946C2.2629 36.208 1.80849 36.2524 1.39546 36.4223C0.982429 36.5922 0.629363 36.8799 0.380987 37.249C0.132612 37.6181 0 38.052 0 38.496C0 39.0913 0.238215 39.6622 0.662121 40.0831C1.08603 40.504 1.66092 40.7405 2.26041 40.7405Z" fill="#1A202C"/>
<path d="M124.748 22.6064C125.992 22.6064 127 21.6053 127 20.3703C127 19.1354 125.992 18.1343 124.748 18.1343C123.505 18.1343 122.496 19.1354 122.496 20.3703C122.496 21.6053 123.505 22.6064 124.748 22.6064Z" fill="#1A202C"/>
<path d="M104.328 22.6064C105.571 22.6064 106.58 21.6053 106.58 20.3703C106.58 19.1354 105.571 18.1343 104.328 18.1343C103.084 18.1343 102.076 19.1354 102.076 20.3703C102.076 21.6053 103.084 22.6064 104.328 22.6064Z" fill="#1A202C"/>
<path d="M83.916 22.5809C84.3637 22.5825 84.802 22.4521 85.175 22.2061C85.548 21.9601 85.8391 21.6097 86.0112 21.1992C86.1834 20.7887 86.2288 20.3367 86.1419 19.9005C86.055 19.4643 85.8395 19.0636 85.5229 18.7492C85.2063 18.4348 84.8026 18.2209 84.3634 18.1345C83.9241 18.0482 83.469 18.0933 83.0556 18.2643C82.6422 18.4352 82.2893 18.7242 82.0415 19.0946C81.7938 19.465 81.6624 19.9001 81.6641 20.3448C81.6663 20.9371 81.9044 21.5046 82.3262 21.9235C82.748 22.3423 83.3194 22.5786 83.916 22.5809Z" fill="#1A202C"/>
<path d="M63.5043 22.5809C63.9518 22.5809 64.3891 22.449 64.761 22.202C65.1329 21.955 65.4226 21.604 65.5935 21.1933C65.7643 20.7827 65.8085 20.331 65.7206 19.8953C65.6327 19.4597 65.4166 19.0598 65.0996 18.7462C64.7826 18.4327 64.379 18.2195 63.94 18.1339C63.5009 18.0482 63.0462 18.0939 62.6333 18.2651C62.2205 18.4363 61.8681 18.7253 61.6207 19.0955C61.3734 19.4657 61.2422 19.9005 61.2439 20.3448C61.2439 20.6391 61.3024 20.9306 61.4161 21.2025C61.5298 21.4743 61.6964 21.7212 61.9064 21.9289C62.1165 22.1367 62.3657 22.3012 62.6399 22.4131C62.9141 22.525 63.2079 22.582 63.5043 22.5809Z" fill="#1A202C"/>
<path d="M43.0839 22.6064C44.3276 22.6064 45.3358 21.6053 45.3358 20.3703C45.3358 19.1354 44.3276 18.1343 43.0839 18.1343C41.8402 18.1343 40.832 19.1354 40.832 20.3703C40.832 21.6053 41.8402 22.6064 43.0839 22.6064Z" fill="#1A202C"/>
<path d="M23.5368 22.3513C24.687 21.8817 25.2361 20.5751 24.7632 19.4329C24.2903 18.2908 22.9744 17.7455 21.8242 18.2151C20.6739 18.6847 20.1248 19.9914 20.5978 21.1335C21.0707 22.2757 22.3865 22.8209 23.5368 22.3513Z" fill="#1A202C"/>
<path d="M2.26043 22.5809C2.70786 22.5809 3.14519 22.449 3.5171 22.202C3.889 21.955 4.17873 21.604 4.34956 21.1933C4.52039 20.7827 4.56471 20.331 4.4768 19.8953C4.38889 19.4597 4.17268 19.0598 3.85571 18.7462C3.53873 18.4327 3.13522 18.2195 2.69619 18.1339C2.25715 18.0482 1.80242 18.0939 1.38954 18.2651C0.976661 18.4363 0.624185 18.7253 0.376839 19.0955C0.129492 19.4657 -0.0016723 19.9005 1.60975e-05 20.3448C1.39708e-05 20.6391 0.0585364 20.9306 0.172236 21.2025C0.285936 21.4743 0.452648 21.7212 0.662657 21.9289C0.872667 22.1367 1.12191 22.3012 1.3961 22.4131C1.6703 22.525 1.96399 22.582 2.26043 22.5809Z" fill="#1A202C"/>
<path d="M124.748 4.47212C125.992 4.47212 127 3.471 127 2.23606C127 1.00112 125.992 0 124.748 0C123.505 0 122.496 1.00112 122.496 2.23606C122.496 3.471 123.505 4.47212 124.748 4.47212Z" fill="#1A202C"/>
<path d="M104.328 4.47212C105.571 4.47212 106.58 3.471 106.58 2.23606C106.58 1.00112 105.571 0 104.328 0C103.084 0 102.076 1.00112 102.076 2.23606C102.076 3.471 103.084 4.47212 104.328 4.47212Z" fill="#1A202C"/>
<path d="M83.9159 4.48076C84.3634 4.48244 84.8012 4.35225 85.1741 4.10663C85.5469 3.86102 85.838 3.51102 86.0104 3.10104C86.1828 2.69106 86.2288 2.23952 86.1425 1.80357C86.0563 1.36761 85.8417 0.966886 85.5259 0.652135C85.2101 0.337385 84.8074 0.122745 84.3687 0.0354506C83.93 -0.0518437 83.475 -0.00788666 83.0615 0.161745C82.648 0.331376 82.2944 0.619076 82.0457 0.988368C81.7969 1.35766 81.6641 1.79193 81.6641 2.23621C81.6641 2.83003 81.9011 3.39965 82.3232 3.82034C82.7452 4.24103 83.3179 4.47852 83.9159 4.48076Z" fill="#1A202C"/>
<path d="M63.5043 4.48075C63.9514 4.48075 64.3884 4.34912 64.7601 4.10249C65.1319 3.85586 65.4215 3.50532 65.5926 3.09519C65.7637 2.68506 65.8084 2.23373 65.7212 1.79834C65.634 1.36294 65.4187 0.962982 65.1026 0.649079C64.7865 0.335176 64.3837 0.12143 63.9453 0.0348243C63.5068 -0.0517813 63.0523 -0.00731718 62.6393 0.162566C62.2262 0.332449 61.8733 0.62013 61.6249 0.989241C61.3765 1.35835 61.2439 1.79228 61.2439 2.23621C61.2439 2.53096 61.3023 2.82287 61.4159 3.09519C61.5295 3.36751 61.696 3.61491 61.9059 3.82333C62.1158 4.03176 62.365 4.1971 62.6393 4.3099C62.9135 4.4227 63.2075 4.48075 63.5043 4.48075Z" fill="#1A202C"/>
<path d="M43.0839 4.47212C44.3276 4.47212 45.3358 3.471 45.3358 2.23606C45.3358 1.00112 44.3276 0 43.0839 0C41.8402 0 40.832 1.00112 40.832 2.23606C40.832 3.471 41.8402 4.47212 43.0839 4.47212Z" fill="#1A202C"/>
<path d="M23.5355 4.21602C24.6858 3.74641 25.2349 2.4398 24.7619 1.29763C24.289 0.15546 22.9732 -0.389723 21.8229 0.0798802C20.6727 0.549483 20.1236 1.85605 20.5965 2.99822C21.0694 4.14039 22.3853 4.68562 23.5355 4.21602Z" fill="#1A202C"/>
<path d="M2.26041 4.48075C2.70748 4.48075 3.14453 4.34912 3.51625 4.10249C3.88797 3.85586 4.17763 3.50532 4.34871 3.09519C4.5198 2.68506 4.56463 2.23373 4.47741 1.79834C4.39019 1.36294 4.17493 0.962982 3.85881 0.649079C3.54269 0.335176 3.13985 0.12143 2.70138 0.0348243C2.2629 -0.0517813 1.80849 -0.00731718 1.39546 0.162566C0.982429 0.332449 0.629363 0.62013 0.380987 0.989241C0.132612 1.35835 0 1.79228 0 2.23621C0 2.83149 0.238215 3.4024 0.662121 3.82333C1.08603 4.24426 1.66092 4.48075 2.26041 4.48075Z" fill="#1A202C"/>
</g>
<defs>
<clipPath id="clip0_147_1632">
<rect width="127" height="77" fill="white"/>
</clipPath>
</defs>
</svg>
