<svg width="33" height="33" viewBox="0 0 33 33" fill="none" xmlns="http://www.w3.org/2000/svg">
<rect x="0.5" y="0.5" width="32" height="32" stroke="#232729"/>
<path fill-rule="evenodd" clip-rule="evenodd" d="M24.6593 9.70555L25.0591 9.90278V18.4413L23.9988 17.381L20.0426 21.3371L20.0173 21.3389L19.0594 20.381L17.577 21.8634C17.4585 21.9099 17.3443 21.9589 17.2347 22.0101C16.1493 22.5171 14.753 22.8129 13.2466 22.8129C12.4058 22.8129 11.2524 22.8086 9.28774 22.0227L8.93414 21.8813V9.4196L9.70555 9.72816C11.4801 10.438 12.4765 10.438 13.2329 10.4379H13.2466C14.6159 10.4379 15.8452 10.1674 16.7586 9.74077C17.844 9.23383 19.2403 8.93793 20.7466 8.93793C21.9337 8.93793 22.9237 9.13566 23.6199 9.33457C23.9683 9.43412 24.2443 9.5343 24.436 9.61097C24.5319 9.64932 24.6068 9.68185 24.6593 9.70555ZM16.9966 13.4379C15.6505 13.4379 14.5591 14.5292 14.5591 15.8754C14.5591 17.2216 15.6505 18.3129 16.9966 18.3129C18.3428 18.3129 19.4341 17.2216 19.4341 15.8754C19.4341 14.5292 18.3428 13.4379 16.9966 13.4379ZM12.8716 15.8754V17.3822H11.3716V15.8754H12.8716ZM22.6216 15.8763V14.3696H21.1216V15.8763H22.6216Z" fill="black"/>
<path fill-rule="evenodd" clip-rule="evenodd" d="M20.0348 22.9415L24.0045 18.9719L25.0652 20.0325L20.0348 25.0628L18.0045 23.0325L19.0652 21.9719L20.0348 22.9415Z" fill="black"/>
</svg>
