<svg width="33" height="33" viewBox="0 0 33 33" fill="none" xmlns="http://www.w3.org/2000/svg">
<rect x="0.5" y="0.5" width="32" height="32" stroke="#232729"/>
<path d="M22.4686 12.5H23.0002C23.4144 12.5 23.7502 12.8357 23.7502 13.25V18.4999C23.7502 18.9141 23.4144 19.2499 23.0002 19.2499H21.5002L18.3739 14.8732C18.0009 14.351 17.337 14.1239 16.7223 14.3083L14.8583 14.8675C14.3298 15.0261 13.7568 14.8816 13.3666 14.4914L13.1471 14.2719C12.8124 13.9372 12.8676 13.38 13.2614 13.1175L17.3122 10.417C17.8064 10.0875 18.4484 10.0807 18.9495 10.3995L22.066 12.3827C22.1863 12.4593 22.326 12.5 22.4686 12.5ZM11.7703 18.721L10.5585 19.7814C10.2049 20.0907 10.2196 20.6452 10.589 20.9355L14.4446 23.9649C14.8046 24.2478 15.3319 24.1448 15.5591 23.7472L16.087 22.8234C16.4095 22.259 16.3318 21.5511 15.8946 21.0702L13.868 18.8409C13.3182 18.2361 12.3854 18.1828 11.7703 18.721ZM13.2842 11.75H10.25C9.83579 11.75 9.5 12.0858 9.5 12.5V18.1368C9.5 18.4431 9.59356 18.738 9.76264 18.9848C9.78057 18.9678 9.79892 18.9511 9.81768 18.9347L11.0295 17.8743C12.1059 16.9325 13.7383 17.0257 14.7004 18.0841L16.7271 20.3134C17.4922 21.1551 17.6282 22.3938 17.0638 23.3815L16.5731 24.2403C16.9953 24.4003 17.4762 24.3642 17.8767 24.1239L21.1836 22.1398C21.5589 21.9146 21.6624 21.4172 21.4082 21.0609L17.4582 15.5271C17.3649 15.3965 17.1989 15.3398 17.0452 15.3859L15.1813 15.945C14.2563 16.2225 13.2537 15.9698 12.5708 15.2869L12.3513 15.0673C11.5146 14.2307 11.6525 12.8378 12.637 12.1814L13.2842 11.75Z" fill="black"/>
</svg>
