<svg width="32" height="36" viewBox="0 0 45 42" fill="none" xmlns="http://www.w3.org/2000/svg">
<path d="M34.0335 5.7847C30.7481 3.69621 26.7657 2.47339 22.4737 2.47339C11.2103 2.47339 2.07959 10.8946 2.07959 21.2826C2.07959 31.6706 11.2103 40.0918 22.4737 40.0918C33.737 40.0918 42.8678 31.6706 42.8678 21.2826C42.8678 17.3241 41.5419 13.6512 39.2775 10.6211L36.6011 13.0895C38.222 15.4619 39.1598 18.2713 39.1598 21.2826C39.1598 29.7819 31.6892 36.6719 22.4737 36.6719C13.2582 36.6719 5.78761 29.7819 5.78761 21.2826C5.78761 12.7833 13.2582 5.89324 22.4737 5.89324C25.7388 5.89324 28.7848 6.75815 31.3571 8.25311L34.0335 5.7847Z" fill="black"/>
<path d="M37.3058 2.47339C38.3297 2.47339 39.1598 3.23895 39.1598 4.18332V5.89324H41.0138C42.0377 5.89324 42.8678 6.6588 42.8678 7.60317C42.8678 8.54754 42.0377 9.3131 41.0138 9.3131H38.0737L25.9053 20.5359C26.6083 20.7789 27.1087 21.4043 27.1087 22.1376C27.1087 23.0819 26.2786 23.8475 25.2547 23.8475H21.5467C20.5227 23.8475 19.6927 23.0819 19.6927 22.1376V18.7177C19.6927 17.7733 20.5227 17.0078 21.5467 17.0078C22.3417 17.0078 23.0198 17.4693 23.2833 18.1177L35.4518 6.8949V4.18332C35.4518 3.23895 36.2818 2.47339 37.3058 2.47339Z" fill="black"/>
<path d="M22.4737 9.3131C24.7087 9.3131 26.8118 9.83417 28.6479 10.7518L25.8613 13.3218C24.812 12.9417 23.6693 12.733 22.4737 12.733C17.354 12.733 13.2036 16.5608 13.2036 21.2826C13.2036 26.0044 17.354 29.8322 22.4737 29.8322C27.5934 29.8322 31.7437 26.0044 31.7437 21.2826C31.7437 20.1799 31.5174 19.126 31.1053 18.1582L33.8918 15.5882C34.8868 17.2816 35.4518 19.2212 35.4518 21.2826C35.4518 27.8932 29.6413 33.2521 22.4737 33.2521C15.3061 33.2521 9.49563 27.8932 9.49563 21.2826C9.49563 14.672 15.3061 9.3131 22.4737 9.3131Z" fill="black"/>
</svg>
