<svg width="33" height="33" viewBox="0 0 33 33" fill="none" xmlns="http://www.w3.org/2000/svg">
<rect x="0.5" y="0.5" width="32" height="32" stroke="#232729"/>
<path d="M17 15.5C18.6568 15.5 20 14.1569 20 12.5C20 10.8431 18.6568 9.5 17 9.5C15.3431 9.5 14 10.8431 14 12.5C14 14.1569 15.3431 15.5 17 15.5ZM12.125 17.75C13.1605 17.75 14 16.9105 14 15.875C14 14.8395 13.1605 14 12.125 14C11.0895 14 10.25 14.8395 10.25 15.875C10.25 16.9105 11.0895 17.75 12.125 17.75ZM23.75 15.875C23.75 16.9105 22.9105 17.75 21.875 17.75C20.8395 17.75 20 16.9105 20 15.875C20 14.8395 20.8395 14 21.875 14C22.9105 14 23.75 14.8395 23.75 15.875ZM17 16.25C19.071 16.25 20.75 17.929 20.75 20V24.5H13.25V20C13.25 17.929 14.9289 16.25 17 16.25ZM11.75 19.9999C11.75 19.4803 11.8255 18.9782 11.9661 18.5042L11.839 18.5153C10.5238 18.6578 9.5 19.7719 9.5 21.1249V24.4999H11.75V19.9999ZM24.5 24.4999V21.1249C24.5 19.7284 23.4094 18.5865 22.0338 18.5042C22.1745 18.9782 22.25 19.4803 22.25 19.9999V24.4999H24.5Z" fill="black"/>
</svg>
