<svg width="33" height="33" viewBox="0 0 33 33" fill="none" xmlns="http://www.w3.org/2000/svg">
<rect x="0.5" y="0.5" width="32" height="32" stroke="#232729"/>
<path d="M13.542 20.404C12.0042 19.3176 11 17.526 11 15.5C11 12.1863 13.6863 9.5 17 9.5C20.3137 9.5 23 12.1863 23 15.5C23 17.526 21.9958 19.3176 20.4579 20.404L22.0202 23.9747C22.1032 24.1645 22.0167 24.3855 21.8269 24.4686C21.7795 24.4893 21.7284 24.5 21.6766 24.5H12.3234C12.1163 24.5 11.9484 24.3321 11.9484 24.125C11.9484 24.0732 11.9591 24.0221 11.9798 23.9747L13.542 20.404ZM14.0889 16.2278C14.4141 17.5329 15.5941 18.5 17 18.5C18.4059 18.5 19.5858 17.5329 19.9111 16.2278L18.4555 15.8639C18.2929 16.5165 17.7029 17 17 17C16.2971 17 15.7071 16.5165 15.5445 15.8639L14.0889 16.2278Z" fill="black"/>
</svg>
