<svg width="48" height="48" viewBox="0 0 48 48" fill="none" xmlns="http://www.w3.org/2000/svg">
<rect x="0.5" y="0.5" width="47" height="47" stroke="black"/>
<path d="M30.6107 12.3331C32.217 12.3377 33.7563 12.9538 34.8922 14.0469C36.028 15.1399 36.6683 16.6211 36.6731 18.1669V29.8331C36.6683 31.3789 36.028 32.8601 34.8922 33.9531C33.7563 35.0462 32.217 35.6623 30.6107 35.6669H18.487C16.8807 35.6623 15.3414 35.0462 14.2055 33.9531C13.0697 32.8601 12.4294 31.3789 12.4246 29.8331V18.1669C12.4294 16.6211 13.0697 15.1399 14.2055 14.0469C15.3414 12.9538 16.8807 12.3377 18.487 12.3331H30.6107ZM30.6107 10H18.487C13.8191 10 10 13.675 10 18.1669V29.8331C10 34.325 13.8191 38 18.487 38H30.6107C35.2786 38 39.0977 34.325 39.0977 29.8331V18.1669C39.0977 13.675 35.2786 10 30.6107 10Z" fill="#212121"/>
<path d="M32.4293 18.1677C32.0696 18.1677 31.718 18.0651 31.4189 17.8728C31.1198 17.6805 30.8867 17.4072 30.7491 17.0874C30.6114 16.7677 30.5754 16.4158 30.6456 16.0763C30.7158 15.7369 30.889 15.425 31.1433 15.1803C31.3976 14.9355 31.7217 14.7689 32.0745 14.7014C32.4272 14.6338 32.7929 14.6685 33.1252 14.8009C33.4575 14.9334 33.7415 15.1577 33.9414 15.4455C34.1412 15.7333 34.2479 16.0716 34.2479 16.4177C34.2484 16.6477 34.2017 16.8755 34.1105 17.088C34.0193 17.3005 33.8853 17.4937 33.7163 17.6563C33.5474 17.8189 33.3467 17.9478 33.1258 18.0355C32.9049 18.1233 32.6682 18.1682 32.4293 18.1677ZM24.5488 19.334C25.508 19.334 26.4457 19.6077 27.2433 20.1205C28.0408 20.6333 28.6624 21.3622 29.0295 22.2149C29.3966 23.0677 29.4926 24.006 29.3055 24.9113C29.1184 25.8166 28.6565 26.6482 27.9782 27.3008C27.2999 27.9535 26.4358 28.398 25.495 28.5781C24.5542 28.7581 23.5791 28.6657 22.6929 28.3125C21.8067 27.9593 21.0493 27.3611 20.5164 26.5936C19.9834 25.8262 19.699 24.9239 19.699 24.0008C19.7004 22.7635 20.2118 21.5773 21.121 20.7023C22.0302 19.8274 23.263 19.3353 24.5488 19.334ZM24.5488 17.0009C23.1101 17.0009 21.7037 17.4114 20.5074 18.1806C19.3111 18.9497 18.3787 20.043 17.8281 21.3221C17.2776 22.6011 17.1335 24.0086 17.4142 25.3665C17.6949 26.7243 18.3877 27.9716 19.405 28.9506C20.4224 29.9296 21.7186 30.5963 23.1297 30.8663C24.5408 31.1364 26.0034 30.9978 27.3326 30.468C28.6619 29.9382 29.798 29.041 30.5973 27.8898C31.3966 26.7387 31.8233 25.3853 31.8233 24.0008C31.8233 22.1443 31.0569 20.3639 29.6926 19.0511C28.3284 17.7383 26.4781 17.0009 24.5488 17.0009Z" fill="#212121"/>
</svg>
