<svg width="48" height="48" viewBox="0 0 48 48" fill="none" xmlns="http://www.w3.org/2000/svg">
<rect x="0.5" y="0.5" width="47" height="47" stroke="black"/>
<path d="M34.8889 10C35.714 10 36.5053 10.3278 37.0888 10.9112C37.6722 11.4947 38 12.286 38 13.1111V34.8889C38 35.714 37.6722 36.5053 37.0888 37.0888C36.5053 37.6722 35.714 38 34.8889 38H13.1111C12.286 38 11.4947 37.6722 10.9112 37.0888C10.3278 36.5053 10 35.714 10 34.8889V13.1111C10 12.286 10.3278 11.4947 10.9112 10.9112C11.4947 10.3278 12.286 10 13.1111 10H34.8889ZM34.1111 34.1111V25.8667C34.1111 24.5217 33.5768 23.2319 32.6258 22.2808C31.6748 21.3298 30.3849 20.7956 29.04 20.7956C27.7178 20.7956 26.1778 21.6044 25.4311 22.8178V21.0911H21.0911V34.1111H25.4311V26.4422C25.4311 25.2444 26.3956 24.2644 27.5933 24.2644C28.1709 24.2644 28.7248 24.4939 29.1333 24.9023C29.5417 25.3107 29.7711 25.8646 29.7711 26.4422V34.1111H34.1111ZM16.0356 18.6489C16.7287 18.6489 17.3934 18.3736 17.8835 17.8835C18.3736 17.3934 18.6489 16.7287 18.6489 16.0356C18.6489 14.5889 17.4822 13.4067 16.0356 13.4067C15.3383 13.4067 14.6697 13.6836 14.1767 14.1767C13.6836 14.6697 13.4067 15.3383 13.4067 16.0356C13.4067 17.4822 14.5889 18.6489 16.0356 18.6489ZM18.1978 34.1111V21.0911H13.8889V34.1111H18.1978Z" fill="#212121"/>
</svg>
