<svg width="48" height="48" viewBox="0 0 48 48" fill="none" xmlns="http://www.w3.org/2000/svg">
<rect x="0.5" y="0.5" width="47" height="47" stroke="black"/>
<path fill-rule="evenodd" clip-rule="evenodd" d="M38 24.0846C38 16.3066 31.7313 10 24 10C16.2688 10 10 16.3066 10 24.0846C10 31.1143 15.1188 36.9411 21.8125 37.9987V28.1571H18.2569V24.0846H21.8125V20.9816C21.8125 17.4522 23.9031 15.5012 27.1006 15.5012C28.6325 15.5012 30.235 15.7766 30.235 15.7766V19.243H28.4688C26.7306 19.243 26.1869 20.3283 26.1869 21.4437V24.0846H30.0694L29.4494 28.1571H26.1875V38C32.8813 36.943 38 31.1162 38 24.0846Z" fill="#212121"/>
</svg>
