<svg width="179" height="30" viewBox="0 0 179 30" fill="none" xmlns="http://www.w3.org/2000/svg">
<g clip-path="url(#clip0_247_2144)">
<path d="M29.9989 7.51973V0.00198364L22.4261 0.00198364V7.51973L29.9989 7.51973Z" fill="#38EF7D"/>
<path d="M27.4741 5.01839V2.50909L24.9465 2.50909V5.01839H27.4741Z" fill="white"/>
<path d="M27.4749 30.0012V27.4919H24.9472V30.0012H27.4749Z" fill="white"/>
<path d="M2.52847 5.01357L2.52847 2.50427L0.000813246 2.50427L0.000813246 5.01357H2.52847Z" fill="white"/>
<path d="M24.9498 7.51776V22.5482H7.5983V5.01353H23.7498V2.50931H7.5983H6.89362H5.07574V22.5482V25.0524H27.4723V22.5482V7.51776H24.9498Z" fill="white"/>
<path d="M19.8842 12.5262H15.1711V15.0304H19.8842V20.0389H22.4068V15.0304V12.5262H19.8842Z" fill="white"/>
<path fill-rule="evenodd" clip-rule="evenodd" d="M12.6517 20.0378V7.51663H10.1292V20.0378H12.6517ZM12.6537 20.0412H17.3618V17.537H12.6537V20.0412ZM22.407 10.0238H12.6538V7.51959H22.407V10.0238Z" fill="white"/>
<path d="M2.52765 27.4958V7.51773H0.00509644V30H2.52765H22.4068V27.4958H2.52765Z" fill="white"/>
</g>
<path d="M175.878 23.64V6H178.386V23.64H175.878Z" fill="white"/>
<path d="M166.834 24C165.874 24 165.07 23.824 164.422 23.472C163.774 23.112 163.282 22.64 162.946 22.056C162.618 21.464 162.454 20.816 162.454 20.112C162.454 19.456 162.57 18.88 162.802 18.384C163.034 17.888 163.378 17.468 163.834 17.124C164.29 16.772 164.85 16.488 165.514 16.272C166.09 16.104 166.742 15.956 167.47 15.828C168.198 15.7 168.962 15.58 169.762 15.468C170.57 15.356 171.37 15.244 172.162 15.132L171.25 15.636C171.266 14.62 171.05 13.868 170.602 13.38C170.162 12.884 169.402 12.636 168.322 12.636C167.642 12.636 167.018 12.796 166.45 13.116C165.882 13.428 165.486 13.948 165.262 14.676L162.922 13.956C163.242 12.844 163.85 11.96 164.746 11.304C165.65 10.648 166.85 10.32 168.346 10.32C169.506 10.32 170.514 10.52 171.37 10.92C172.234 11.312 172.866 11.936 173.266 12.792C173.474 13.216 173.602 13.664 173.65 14.136C173.698 14.608 173.722 15.116 173.722 15.66V23.64H171.502V20.676L171.934 21.06C171.398 22.052 170.714 22.792 169.882 23.28C169.058 23.76 168.042 24 166.834 24ZM167.278 21.948C167.99 21.948 168.602 21.824 169.114 21.576C169.626 21.32 170.038 20.996 170.35 20.604C170.662 20.212 170.866 19.804 170.962 19.38C171.098 18.996 171.174 18.564 171.19 18.084C171.214 17.604 171.226 17.22 171.226 16.932L172.042 17.232C171.25 17.352 170.53 17.46 169.882 17.556C169.234 17.652 168.646 17.748 168.118 17.844C167.598 17.932 167.134 18.04 166.726 18.168C166.382 18.288 166.074 18.432 165.802 18.6C165.538 18.768 165.326 18.972 165.166 19.212C165.014 19.452 164.938 19.744 164.938 20.088C164.938 20.424 165.022 20.736 165.19 21.024C165.358 21.304 165.614 21.528 165.958 21.696C166.302 21.864 166.742 21.948 167.278 21.948Z" fill="white"/>
<path d="M155.856 24C154.616 24 153.576 23.7 152.736 23.1C151.896 22.492 151.26 21.672 150.828 20.64C150.396 19.608 150.18 18.444 150.18 17.148C150.18 15.852 150.392 14.688 150.816 13.656C151.248 12.624 151.881 11.812 152.713 11.22C153.553 10.62 154.585 10.32 155.809 10.32C157.025 10.32 158.072 10.62 158.952 11.22C159.84 11.812 160.525 12.624 161.005 13.656C161.485 14.68 161.725 15.844 161.725 17.148C161.725 18.444 161.485 19.612 161.005 20.652C160.533 21.684 159.857 22.5 158.977 23.1C158.105 23.7 157.064 24 155.856 24ZM149.76 23.64V6.35999H152.281V14.316H151.993V23.64H149.76ZM155.508 21.732C156.308 21.732 156.969 21.528 157.489 21.12C158.017 20.712 158.408 20.164 158.664 19.476C158.928 18.78 159.061 18.004 159.061 17.148C159.061 16.3 158.928 15.532 158.664 14.844C158.408 14.156 158.013 13.608 157.477 13.2C156.941 12.792 156.256 12.588 155.424 12.588C154.64 12.588 153.992 12.78 153.48 13.164C152.976 13.548 152.601 14.084 152.353 14.772C152.113 15.46 151.993 16.252 151.993 17.148C151.993 18.044 152.113 18.836 152.353 19.524C152.593 20.212 152.973 20.752 153.493 21.144C154.013 21.536 154.684 21.732 155.508 21.732Z" fill="white"/>
<path d="M141.976 24C140.68 24 139.556 23.708 138.604 23.124C137.652 22.54 136.916 21.736 136.396 20.712C135.884 19.68 135.628 18.492 135.628 17.148C135.628 15.796 135.892 14.608 136.42 13.584C136.948 12.552 137.688 11.752 138.64 11.184C139.592 10.608 140.704 10.32 141.976 10.32C143.272 10.32 144.396 10.612 145.348 11.196C146.3 11.78 147.036 12.584 147.556 13.608C148.076 14.632 148.336 15.812 148.336 17.148C148.336 18.5 148.072 19.692 147.544 20.724C147.024 21.748 146.288 22.552 145.336 23.136C144.384 23.712 143.264 24 141.976 24ZM141.976 21.636C143.216 21.636 144.14 21.22 144.748 20.388C145.364 19.548 145.672 18.468 145.672 17.148C145.672 15.796 145.36 14.716 144.736 13.908C144.12 13.092 143.2 12.684 141.976 12.684C141.136 12.684 140.444 12.876 139.9 13.26C139.356 13.636 138.952 14.16 138.688 14.832C138.424 15.496 138.292 16.268 138.292 17.148C138.292 18.508 138.604 19.596 139.228 20.412C139.852 21.228 140.768 21.636 141.976 21.636Z" fill="white"/>
<path d="M131.436 23.64V6H133.944V23.64H131.436Z" fill="white"/>
<path d="M122.12 24C120.96 24 119.892 23.8 118.916 23.4C117.94 22.992 117.092 22.4 116.372 21.624C115.652 20.848 115.092 19.904 114.692 18.792C114.292 17.68 114.092 16.416 114.092 15C114.092 13.136 114.432 11.536 115.112 10.2C115.792 8.85599 116.736 7.82399 117.944 7.10399C119.152 6.37599 120.544 6.01199 122.12 6.01199C124.152 6.01199 125.772 6.48399 126.98 7.42799C128.196 8.37199 129.024 9.67599 129.464 11.34L126.92 11.796C126.568 10.764 126 9.93999 125.216 9.32399C124.432 8.70799 123.448 8.39599 122.264 8.38799C121.04 8.37999 120.02 8.65199 119.204 9.20399C118.396 9.75599 117.788 10.532 117.38 11.532C116.972 12.524 116.764 13.68 116.756 15C116.748 16.32 116.948 17.476 117.356 18.468C117.764 19.452 118.376 20.22 119.192 20.772C120.016 21.324 121.04 21.604 122.264 21.612C123.248 21.628 124.092 21.448 124.796 21.072C125.508 20.688 126.072 20.128 126.488 19.392C126.904 18.656 127.172 17.752 127.292 16.68H123.932V14.664H129.956C129.972 14.808 129.984 15 129.992 15.24C130 15.472 130.004 15.62 130.004 15.684C130.004 17.284 129.696 18.712 129.08 19.968C128.464 21.224 127.568 22.212 126.392 22.932C125.216 23.644 123.792 24 122.12 24Z" fill="white"/>
<path d="M110.583 23.64V17.268C110.583 16.764 110.539 16.248 110.451 15.72C110.371 15.184 110.211 14.688 109.971 14.232C109.739 13.776 109.407 13.408 108.975 13.128C108.551 12.848 107.995 12.708 107.307 12.708C106.859 12.708 106.435 12.784 106.035 12.936C105.635 13.08 105.283 13.316 104.979 13.644C104.683 13.972 104.447 14.404 104.271 14.94C104.103 15.476 104.019 16.128 104.019 16.896L102.459 16.308C102.459 15.132 102.679 14.096 103.119 13.2C103.559 12.296 104.191 11.592 105.015 11.088C105.839 10.584 106.835 10.332 108.003 10.332C108.899 10.332 109.651 10.476 110.259 10.764C110.867 11.052 111.359 11.432 111.735 11.904C112.119 12.368 112.411 12.876 112.611 13.428C112.811 13.98 112.947 14.52 113.019 15.048C113.091 15.576 113.127 16.04 113.127 16.44V23.64H110.583ZM101.475 23.64V10.68H103.719V14.424H104.019V23.64H101.475Z" fill="white"/>
<path d="M92.1329 24C90.4049 24 88.9329 23.624 87.7169 22.872C86.5009 22.112 85.5689 21.056 84.9209 19.704C84.2809 18.352 83.9609 16.784 83.9609 15C83.9609 13.216 84.2809 11.648 84.9209 10.296C85.5689 8.944 86.5009 7.892 87.7169 7.14C88.9329 6.38 90.4049 6 92.1329 6C93.8529 6 95.3209 6.38 96.5369 7.14C97.7609 7.892 98.6929 8.944 99.3329 10.296C99.9729 11.648 100.293 13.216 100.293 15C100.293 16.784 99.9729 18.352 99.3329 19.704C98.6929 21.056 97.7609 22.112 96.5369 22.872C95.3209 23.624 93.8529 24 92.1329 24ZM92.1329 21.612C93.3569 21.628 94.3729 21.36 95.1809 20.808C95.9969 20.248 96.6089 19.472 97.0169 18.48C97.4249 17.48 97.6289 16.32 97.6289 15C97.6289 13.68 97.4249 12.528 97.0169 11.544C96.6089 10.552 95.9969 9.78 95.1809 9.228C94.3729 8.676 93.3569 8.396 92.1329 8.388C90.9089 8.372 89.8889 8.64 89.0729 9.192C88.2649 9.744 87.6569 10.52 87.2489 11.52C86.8409 12.52 86.6329 13.68 86.6249 15C86.6169 16.32 86.8169 17.476 87.2249 18.468C87.6329 19.452 88.2449 20.22 89.0609 20.772C89.8849 21.324 90.9089 21.604 92.1329 21.612Z" fill="white"/>
<path d="M76.6674 24C75.4594 24 74.4154 23.7 73.5354 23.1C72.6634 22.5 71.9874 21.684 71.5074 20.652C71.0354 19.612 70.7994 18.444 70.7994 17.148C70.7994 15.844 71.0394 14.68 71.5194 13.656C71.9994 12.624 72.6794 11.812 73.5594 11.22C74.4474 10.62 75.4994 10.32 76.7154 10.32C77.9394 10.32 78.9674 10.62 79.7994 11.22C80.6394 11.812 81.2714 12.624 81.6954 13.656C82.1274 14.688 82.3434 15.852 82.3434 17.148C82.3434 18.444 82.1274 19.608 81.6954 20.64C81.2634 21.672 80.6274 22.492 79.7874 23.1C78.9474 23.7 77.9074 24 76.6674 24ZM77.0154 21.732C77.8394 21.732 78.5114 21.536 79.0314 21.144C79.5514 20.752 79.9314 20.212 80.1714 19.524C80.4114 18.836 80.5314 18.044 80.5314 17.148C80.5314 16.252 80.4074 15.46 80.1594 14.772C79.9194 14.084 79.5434 13.548 79.0314 13.164C78.5274 12.78 77.8834 12.588 77.0994 12.588C76.2674 12.588 75.5834 12.792 75.0474 13.2C74.5114 13.608 74.1114 14.156 73.8474 14.844C73.5914 15.532 73.4634 16.3 73.4634 17.148C73.4634 18.004 73.5914 18.78 73.8474 19.476C74.1114 20.164 74.5034 20.712 75.0234 21.12C75.5514 21.528 76.2154 21.732 77.0154 21.732ZM80.5314 23.64V14.316H80.2434V6.35999H82.7634V23.64H80.5314Z" fill="white"/>
<path d="M62.7153 24C61.7553 24 60.9513 23.824 60.3033 23.472C59.6553 23.112 59.1633 22.64 58.8273 22.056C58.4993 21.464 58.3353 20.816 58.3353 20.112C58.3353 19.456 58.4513 18.88 58.6833 18.384C58.9153 17.888 59.2593 17.468 59.7153 17.124C60.1713 16.772 60.7313 16.488 61.3953 16.272C61.9713 16.104 62.6233 15.956 63.3513 15.828C64.0793 15.7 64.8433 15.58 65.6433 15.468C66.4513 15.356 67.2513 15.244 68.0433 15.132L67.1313 15.636C67.1473 14.62 66.9313 13.868 66.4833 13.38C66.0433 12.884 65.2833 12.636 64.2033 12.636C63.5233 12.636 62.8993 12.796 62.3313 13.116C61.7633 13.428 61.3673 13.948 61.1433 14.676L58.8033 13.956C59.1233 12.844 59.7313 11.96 60.6273 11.304C61.5313 10.648 62.7313 10.32 64.2273 10.32C65.3873 10.32 66.3953 10.52 67.2513 10.92C68.1153 11.312 68.7473 11.936 69.1473 12.792C69.3553 13.216 69.4833 13.664 69.5313 14.136C69.5793 14.608 69.6033 15.116 69.6033 15.66V23.64H67.3833V20.676L67.8153 21.06C67.2793 22.052 66.5953 22.792 65.7633 23.28C64.9393 23.76 63.9233 24 62.7153 24ZM63.1593 21.948C63.8713 21.948 64.4833 21.824 64.9953 21.576C65.5073 21.32 65.9193 20.996 66.2313 20.604C66.5433 20.212 66.7473 19.804 66.8433 19.38C66.9793 18.996 67.0553 18.564 67.0713 18.084C67.0953 17.604 67.1073 17.22 67.1073 16.932L67.9233 17.232C67.1313 17.352 66.4113 17.46 65.7633 17.556C65.1153 17.652 64.5273 17.748 63.9993 17.844C63.4793 17.932 63.0153 18.04 62.6073 18.168C62.2633 18.288 61.9553 18.432 61.6833 18.6C61.4193 18.768 61.2073 18.972 61.0473 19.212C60.8953 19.452 60.8193 19.744 60.8193 20.088C60.8193 20.424 60.9033 20.736 61.0713 21.024C61.2393 21.304 61.4953 21.528 61.8393 21.696C62.1833 21.864 62.6233 21.948 63.1593 21.948Z" fill="white"/>
<path d="M51.9174 24C50.6294 24 49.4974 23.72 48.5214 23.16C47.5534 22.592 46.7974 21.804 46.2534 20.796C45.7174 19.78 45.4494 18.604 45.4494 17.268C45.4494 15.852 45.7134 14.624 46.2414 13.584C46.7774 12.544 47.5214 11.74 48.4734 11.172C49.4254 10.604 50.5334 10.32 51.7974 10.32C53.1174 10.32 54.2414 10.628 55.1694 11.244C56.0974 11.852 56.7894 12.72 57.2454 13.848C57.7094 14.976 57.8934 16.316 57.7974 17.868H55.2894V16.956C55.2734 15.452 54.9854 14.34 54.4254 13.62C53.8734 12.9 53.0294 12.54 51.8934 12.54C50.6374 12.54 49.6934 12.936 49.0614 13.728C48.4294 14.52 48.1134 15.664 48.1134 17.16C48.1134 18.584 48.4294 19.688 49.0614 20.472C49.6934 21.248 50.6054 21.636 51.7974 21.636C52.5814 21.636 53.2574 21.46 53.8254 21.108C54.4014 20.748 54.8494 20.236 55.1694 19.572L57.6294 20.352C57.1254 21.512 56.3614 22.412 55.3374 23.052C54.3134 23.684 53.1734 24 51.9174 24ZM47.2974 17.868V15.912H56.5494V17.868H47.2974Z" fill="white"/>
<path d="M35 23.64V6.35999H37.508V21.276H45.332V23.64H35Z" fill="white"/>
<defs>
<clipPath id="clip0_247_2144">
<rect width="30" height="30" fill="white"/>
</clipPath>
</defs>
</svg>
